
<svg
xmlns="http://www.w3.org/2000/svg"
width="1200"
height="570"
viewBox="0 0 1200 570"
>

<defs>

<linearGradient
id="background"
x1="0"
y1="0"
x2="1"
y2="1"
>

<stop
offset="0%"
stop-color="#050B14"
/>

<stop
offset="55%"
stop-color="#172554"
/>

<stop
offset="100%"
stop-color="#312E81"
/>

</linearGradient>

<linearGradient
id="accent"
x1="0"
y1="0"
x2="1"
y2="0"
>

<stop
offset="0%"
stop-color="#38BDF8"
/>

<stop
offset="50%"
stop-color="#2563EB"
/>

<stop
offset="100%"
stop-color="#7C3AED"
/>

</linearGradient>

</defs>

<rect
width="100%"
height="100%"
rx="18"
fill="url(#background)"
/>

<rect
x="1"
y="1"
width="1198"
height="568"
rx="18"
fill="none"
stroke="#334155"
/>

<text x="48" y="55" fill="#38BDF8" font-family="Arial, sans-serif" font-size="26px" font-weight="700" text-anchor="start">CY01-HUB // GITHUB STATUS</text>
<text x="48" y="82" fill="#94A3B8" font-family="Arial, sans-serif" font-size="13px" font-weight="400" text-anchor="start">Repository-controlled • automatically generated</text>

<rect
x="40"
y="110"
width="200"
height="100"
rx="14"
fill="#0B1628"
stroke="#1E293B"
/>

<text x="58" y="140" fill="#94A3B8" font-family="Arial, sans-serif" font-size="11px" font-weight="700" text-anchor="start">REPOSITORIES</text>
<text x="58" y="183" fill="#F8FAFC" font-family="Arial, sans-serif" font-size="30px" font-weight="700" text-anchor="start">7</text>

<rect
x="270"
y="110"
width="200"
height="100"
rx="14"
fill="#0B1628"
stroke="#1E293B"
/>

<text x="288" y="140" fill="#94A3B8" font-family="Arial, sans-serif" font-size="11px" font-weight="700" text-anchor="start">STARS</text>
<text x="288" y="183" fill="#F8FAFC" font-family="Arial, sans-serif" font-size="30px" font-weight="700" text-anchor="start">0</text>

<rect
x="500"
y="110"
width="200"
height="100"
rx="14"
fill="#0B1628"
stroke="#1E293B"
/>

<text x="518" y="140" fill="#94A3B8" font-family="Arial, sans-serif" font-size="11px" font-weight="700" text-anchor="start">FORKS</text>
<text x="518" y="183" fill="#F8FAFC" font-family="Arial, sans-serif" font-size="30px" font-weight="700" text-anchor="start">0</text>

<rect
x="730"
y="110"
width="200"
height="100"
rx="14"
fill="#0B1628"
stroke="#1E293B"
/>

<text x="748" y="140" fill="#94A3B8" font-family="Arial, sans-serif" font-size="11px" font-weight="700" text-anchor="start">FOLLOWERS</text>
<text x="748" y="183" fill="#F8FAFC" font-family="Arial, sans-serif" font-size="30px" font-weight="700" text-anchor="start">4</text>

<rect
x="960"
y="110"
width="200"
height="100"
rx="14"
fill="#0B1628"
stroke="#1E293B"
/>

<text x="978" y="140" fill="#94A3B8" font-family="Arial, sans-serif" font-size="11px" font-weight="700" text-anchor="start">FOLLOWING</text>
<text x="978" y="183" fill="#F8FAFC" font-family="Arial, sans-serif" font-size="30px" font-weight="700" text-anchor="start">4</text>
<text x="48" y="258" fill="#F8FAFC" font-family="Arial, sans-serif" font-size="18px" font-weight="700" text-anchor="start">MOST USED LANGUAGES</text>
<text x="50" y="315" fill="#F8FAFC" font-family="Arial, sans-serif" font-size="13px" font-weight="600" text-anchor="start">Python</text>

<rect
x="190"
y="300"
width="720"
height="18"
rx="9"
fill="#111C2E"
/>


<rect
x="190"
y="300"
width="249.84000000000003"
height="18"
rx="9"
fill="#38BDF8"
/>

<text x="930" y="315" fill="#94A3B8" font-family="Arial, sans-serif" font-size="13px" font-weight="600" text-anchor="start">34.7%</text>
<text x="50" y="353" fill="#F8FAFC" font-family="Arial, sans-serif" font-size="13px" font-weight="600" text-anchor="start">HTML</text>

<rect
x="190"
y="338"
width="720"
height="18"
rx="9"
fill="#111C2E"
/>


<rect
x="190"
y="338"
width="187.20000000000002"
height="18"
rx="9"
fill="#818CF8"
/>

<text x="930" y="353" fill="#94A3B8" font-family="Arial, sans-serif" font-size="13px" font-weight="600" text-anchor="start">26.0%</text>
<text x="50" y="391" fill="#F8FAFC" font-family="Arial, sans-serif" font-size="13px" font-weight="600" text-anchor="start">CSS</text>

<rect
x="190"
y="376"
width="720"
height="18"
rx="9"
fill="#111C2E"
/>


<rect
x="190"
y="376"
width="142.56"
height="18"
rx="9"
fill="#A78BFA"
/>

<text x="930" y="391" fill="#94A3B8" font-family="Arial, sans-serif" font-size="13px" font-weight="600" text-anchor="start">19.8%</text>
<text x="50" y="429" fill="#F8FAFC" font-family="Arial, sans-serif" font-size="13px" font-weight="600" text-anchor="start">JavaScript</text>

<rect
x="190"
y="414"
width="720"
height="18"
rx="9"
fill="#111C2E"
/>


<rect
x="190"
y="414"
width="139.68"
height="18"
rx="9"
fill="#22C55E"
/>

<text x="930" y="429" fill="#94A3B8" font-family="Arial, sans-serif" font-size="13px" font-weight="600" text-anchor="start">19.4%</text>

<rect
x="40"
y="515"
width="1120"
height="1"
fill="url(#accent)"
/>

<text x="48" y="545" fill="#94A3B8" font-family="Arial, sans-serif" font-size="11px" font-weight="600" text-anchor="start">LAST UPDATED // 27 Aug 2026 12:45 UTC</text>
</svg>